
<svg width="374" height="224" viewBox="0 0 374 224" fill="none" xmlns="http://www.w3.org/2000/svg">
<path fill-rule="evenodd" clip-rule="evenodd" d="M359.483 138.845C357.067 139.207 351.277 135.61 347.564 135.051C347.155 132.321 345.095 133.002 344.528 129.738C343.962 126.474 343.662 131.17 342.489 130.044C341.317 128.917 343.322 127.872 344.453 129.749C344.729 127.475 342.54 127.804 342.061 125.643C341.583 123.482 344.477 125.28 345.006 125.201C343.093 124.117 341.197 123.588 339.365 123.628C338.367 120.057 336.302 118.134 335.832 114.483C335.002 114.608 333.042 110.808 333.671 112.947C332.765 113.082 333.317 110.581 332.534 110.512C332.776 109.663 333.129 109.031 333.56 108.674C333.992 108.316 334.489 108.245 335.007 108.467C336.224 106.796 336.364 103.612 338.369 102.567C338.822 102.499 338.369 102.567 338.178 101.294C341.06 101.978 343.162 100.546 347.466 99.9007C346.938 99.98 344.37 100.365 343.411 98.09C342.453 95.8151 344.091 97.9881 344.771 97.8862C343.824 96.7257 344.771 97.8862 345.45 97.7843C345.177 95.9647 344.318 97.9541 343.625 96.9416C344.168 95.2443 344.945 94.038 345.88 93.4406C339.283 85.0131 332.298 80.1023 325.597 79.1789C327.281 77.8442 329.319 78.2027 331.306 80.1833C329.292 76.8161 327.032 74.6876 324.833 74.0839C323.851 74.2311 322.567 74.4236 321.435 74.5935C320.302 74.7633 317.327 70.372 315.563 70.4505C315.767 70.2858 316 70.2509 316.243 70.3485C315.185 70.5071 314.109 68.994 312.895 68.6179C314.619 67.243 318.621 66.6429 319.791 63.1184C315.317 62.1149 310.352 64.5339 306.576 65.1C310.729 64.4772 313.018 61.7154 317.645 60.6494C309.941 62.0874 302.05 62.2761 294.026 61.2143C289.663 60.9657 285.245 60.2 280.788 58.9202C284.488 58.3653 288.857 61.2451 292.784 60.6563C289.138 57.85 285.483 55.4787 281.836 53.5534C290.702 53.4568 299.715 54.5903 308.828 56.948C306.353 54.3423 301.883 55.9428 300.513 52.9853C292.634 51.9341 284.919 51.9747 277.63 51.7653C270.341 51.556 262.657 47.6847 255.594 47.4414C277.342 44.1802 300.902 40.6473 317.915 51.1201C318.896 50.9729 316.228 49.1403 315.852 47.1501C293.721 34.4679 266 40.1133 239.528 44.8271C230.498 45.0391 221.267 43.5617 211.919 40.4086C183.295 33.9308 155.025 31.4595 127.267 33.0085C120.999 33.9484 113.901 35.0128 106.822 37.7489C107.604 37.8329 108.364 37.719 109.087 37.4092C105.949 41.5933 102.219 43.8048 98.1678 43.8841C88.4266 45.3448 78.7045 48.4772 68.29 50.597C57.8756 52.7169 45.6361 53.9941 35.4418 55.5228C32.3743 56.2988 29.3904 57.5542 26.5084 59.2811C26.5084 59.2811 27.7293 60.2144 28.3062 59.9418C27.098 60.123 26.0325 61.7712 26.3117 64.1481C25.0468 64.7225 23.8711 65.7121 22.8153 67.0911C23.0882 68.9107 24.2545 69.4801 25.4837 68.9236C24.7748 70.8905 25.7565 70.7433 26.5244 71.7445C27.2922 72.7457 25.6937 71.869 25.3916 71.9143C29.1252 73.0968 32.7484 72.9302 36.1272 71.4208C33.8503 73.126 31.3944 74.0571 28.8215 74.1908C28.9852 75.2826 29.8787 74.0323 30.1934 75.1014C27.8169 76.7602 23.0951 76.1659 20.7942 77.8133C21.7759 77.6661 22.7576 77.5189 24.0413 77.3264C23.427 80.9535 20.5157 82.1343 20.2853 86.2621C19.2486 86.5524 18.19 86.7111 17.1137 86.7377C16.3586 86.8509 17.6049 90.0131 16.0401 89.8756C16.4931 89.8077 17.3993 89.6718 17.9279 89.5925C16.4931 89.8077 17.8067 94.4481 15.7679 94.7539C16.0953 96.9375 17.4399 97.6661 18.8328 98.2015C19.0238 99.4752 17.6246 98.3826 16.945 98.4845C18.7072 100.453 15.1371 101.36 13.5786 101.78C13.8515 103.6 14.6675 104.408 15.7793 104.613C16.0248 106.251 15.5236 106.512 16.2431 107.707C16.9627 108.901 14.7329 107.933 14.4708 109.275C15.9646 112.028 16.7514 114.7 18.9813 115.668C17.6339 116.725 16.4775 118.475 15.5814 120.815C14.6852 123.156 14.0678 126.037 13.7658 129.288C12.8597 129.424 12.2556 129.515 12.4257 131.164C12.8053 130.929 13.2248 130.89 13.6596 131.048C14.0944 131.207 14.5356 131.56 14.9576 132.087C14.2767 140.933 19.8355 141.96 23.6384 141.576C24.4544 142.384 23.9385 143.578 24.7337 144.761L31.8318 143.696C28.1197 145.695 24.245 146.898 20.2492 147.294C22.3198 149.774 28.2536 146.094 30.0202 150.666C28.793 149.176 28.0968 152.257 25.716 151.312C26.9622 154.474 26.7255 158.044 26.8182 161.751C26.5509 162.112 26.1978 162.165 25.8365 161.899C25.2324 161.989 26.6672 161.774 26.8372 163.423C26.2099 165.82 25.9031 168.711 25.9432 171.848C25.9833 174.985 26.3692 178.275 27.0676 181.436C26.3734 182.47 26.1932 184.358 24.6829 184.584C26.3214 186.757 28.9307 185.622 30.6446 187.784C29.7429 190.524 27.7187 189.897 26.2903 190.669C29.8172 199.257 34.8239 196.088 39.3109 198.206C40.1415 198.081 40.3871 199.719 41.3815 200.686C45.5601 203.499 49.7222 204.823 53.7053 204.606C58.4544 205.382 62.916 205.271 67.3085 205.729C69.4984 205.4 72.022 207.813 74.2728 208.406C81.4573 210.491 89.3862 209.302 96.9565 209.842C96.1341 208.476 95.1442 210.113 94.1626 210.261C87.0859 210.62 79.7746 209.032 72.3742 205.527C75.491 206.222 78.5535 206.323 81.5303 205.829C81.3666 204.737 80.5487 205.976 80.1711 206.033C81.6414 204.51 83.3553 206.672 84.4753 205.387C85.5953 204.103 84.4753 205.387 84.4753 205.387C88.1574 204.428 91.9975 204.476 95.9241 205.531C96.3772 205.463 94.5649 205.735 94.1892 203.745C100.169 201.918 107.82 205.05 113.978 203.382C111.748 202.414 108.982 203.015 106.58 202.445C113.56 200.157 120.698 198.776 127.964 198.308C152.223 196.344 175.915 191.117 200.767 185.902L210.735 184.407C217.38 183.411 224.97 185.622 232.458 185.615C248.966 185 267.106 186.001 283.417 183.555C289.76 182.604 297.312 181.472 304.485 180.396C308.714 179.762 312.876 177.65 316.719 178.562C318.913 179.525 321.02 179.209 322.835 177.645C323.288 177.577 323.145 176.11 323.393 175.7C325.135 174.186 327 173.159 328.955 172.634C330.533 171.181 331.982 169.279 333.278 166.962C333.398 170.851 329.883 172.122 330.388 174.465C332.897 171.112 335.795 162.119 340.349 165.715C340.622 167.535 338.839 165.942 339.42 168.273C339.838 167.729 340.289 167.287 340.767 166.955C341.22 166.887 340.603 165.863 340.439 164.772C344.064 164.228 348.181 164.913 350.845 164.141C350.845 164.141 349.192 162.901 350.572 162.322C346.646 162.911 342.191 163.579 337.674 163.326C337.674 163.326 337.511 162.234 337.429 161.688C339.551 159.881 343.621 160.759 344.571 157.826C350.602 157.935 356.946 161.313 363.115 167.697C363.115 167.697 362.498 166.673 362.924 166.424C363.349 166.174 366.45 168.313 369.2 170.692C369.592 169.703 368.625 168.918 368.371 168.77C368.118 168.622 369.427 170.658 369.915 169.282C363.381 161.115 356.533 155.802 349.819 153.69C349.027 148.413 348.547 148.299 350.485 145.776C349.796 145.228 349.104 145.014 348.461 145.149C348.737 142.875 350.877 144.787 351.949 143.696C350.881 140.693 348.504 142.352 347.464 139.531C349.92 140.465 349.943 138.043 352.221 138.818C351.09 136.941 349.326 137.019 347.954 136.108C353.884 136.187 360.159 139.999 366.133 147.151C366.474 148.239 366.658 149.467 366.652 150.608C367.604 152.326 368.573 151.064 370.096 151.952C369.686 142.525 361.017 142.894 359.483 138.845ZM32.9341 154.136C32.2545 154.238 32.179 154.25 31.6504 154.329C31.1218 154.408 30.5932 154.487 30.0665 152.52C29.5398 150.552 32.1726 153.692 32.9341 154.136ZM57.9651 177.919C58.1561 179.193 57.3045 179.693 56.8096 180.511C54.5315 179.736 51.6557 179.609 48.849 178.914C46.0423 178.219 43.5986 178.399 42.5789 175.203C47.7698 176.841 52.9083 177.748 57.9651 177.919ZM79.2497 178.262C78.268 178.41 68.7851 182.623 67.6562 178.699C71.4319 178.132 75.2475 178.863 79.2497 178.262ZM201.675 161.579C194.09 163.486 186.234 163.667 178.207 162.121C185.847 160.589 193.69 160.408 201.675 161.579ZM285.495 149.01C274.846 151.034 263.987 151.668 252.965 150.911C263.46 147.882 274.327 147.124 285.44 148.646L285.495 149.01ZM280.536 56.7252C279.73 56.8167 278.883 56.5659 278.031 55.9845C278.758 55.5349 279.565 55.4773 280.399 55.8154L280.536 56.7252ZM317.104 88.4528C316.847 92.3986 312.824 93.374 310.153 93.5884C309.474 93.6903 311.815 93.3393 311.294 91.9288C310.774 90.5184 310.388 92.0647 309.922 91.0182C312.446 90.7538 314.816 89.519 316.941 87.361L317.104 88.4528ZM322.608 89.1159C320.419 89.4443 318.969 90.5919 316.945 89.9651C317.634 88.7029 318.48 87.8775 319.428 87.543C320.376 87.2085 321.404 87.3724 322.445 88.0241L322.608 89.1159ZM327.872 97.4433L327.954 97.9892C327.048 98.1251 325.915 98.2949 325.729 99.6253C325.542 100.956 326.71 99.4781 326.88 101.127C324.388 101.501 322.18 100.158 319.681 99.974C319.648 98.8245 319.468 97.6252 319.163 96.5166C317.985 95.9272 316.803 95.1083 315.63 94.0695C316.614 92.7011 317.841 92.1486 319.164 92.4782C320.487 92.8078 321.85 94.0056 323.089 95.9278C322.647 94.9211 322.172 93.9948 321.671 93.1636C323.895 93.5744 325.366 98.7494 327.708 96.3515L327.872 97.4433ZM329.331 86.0612C327.896 86.2763 326.613 86.4688 326.155 83.9327C325.698 81.3965 328.976 83.6957 329.331 86.0612ZM330.941 96.7971C330.723 95.3414 328.822 94.51 329.03 92.8044C329.237 91.0988 329.709 92.7025 329.436 90.8828C330.739 92.362 332.208 92.886 333.242 95.1497C332.871 95.7635 331.853 97.2184 330.941 96.7971ZM329.685 103.869C329.358 101.686 329.194 100.594 328.839 98.2286C329.821 98.0814 330.123 98.0361 330.433 96.5011C330.492 96.4095 330.563 96.356 330.641 96.3442C330.72 96.3325 330.803 96.3628 330.886 96.4331C330.295 97.6382 328.86 97.8533 329.626 100.901C330.392 103.95 332.395 98.2536 333.024 100.392C331.753 100.535 330.677 101.75 329.987 103.824L329.685 103.869ZM338.994 139.685C340.579 139.447 343.132 139.994 343.432 141.996C342.595 141.563 340.638 142.415 339.432 140.549L338.994 139.685ZM344.28 138.892C342.186 138.999 339.955 137.794 337.81 135.397C340.081 135.909 342.409 137.322 344.691 139.575L344.28 138.892ZM317.007 60.0008C317.46 59.9329 315.648 60.2046 315.195 60.2726C314.742 60.3405 316.615 60.9899 317.192 60.7173L317.007 60.0008Z" fill="#F8B52F"/>
</svg>
